<?xml version="1.0" standalone="no"?>
<!DOCTYPE svg PUBLIC "-//W3C//DTD SVG 20010904//EN"
 "http://www.w3.org/TR/2001/REC-SVG-20010904/DTD/svg10.dtd">
<svg version="1.0" xmlns="http://www.w3.org/2000/svg"
 width="512.000000pt" height="512.000000pt" viewBox="0 0 512.000000 512.000000"
 preserveAspectRatio="xMidYMid meet">
<metadata>
Created by potrace 1.16, written by Peter Selinger 2001-2019
</metadata>
<g transform="translate(0.000000,512.000000) scale(0.100000,-0.100000)"
fill="#000000" stroke="none">
<path d="M2415 5093 c-203 -8 -520 -51 -745 -103 -170 -39 -374 -101 -407
-123 -93 -62 -95 -215 -4 -294 15 -12 30 -22 35 -23 4 0 23 -13 40 -28 18 -16
70 -43 117 -61 497 -196 848 -473 1068 -845 135 -228 198 -444 208 -711 6
-178 -7 -298 -53 -479 -190 -748 -858 -1252 -1743 -1315 -135 -10 -418 3 -545
24 -62 11 -130 16 -187 13 -80 -4 -92 -7 -126 -34 -50 -40 -73 -87 -73 -149 0
-62 19 -91 115 -177 476 -426 999 -670 1594 -744 164 -20 489 -20 665 2 701
85 1356 413 1886 944 405 405 679 861 795 1319 52 209 59 271 60 541 0 267 -7
330 -55 525 -143 570 -585 1110 -1150 1409 -419 220 -939 328 -1495 309z m330
-364 c499 -33 922 -182 1280 -452 183 -138 425 -411 535 -603 292 -511 273
-1151 -55 -1771 -223 -421 -580 -798 -1020 -1074 -289 -182 -649 -331 -961
-399 -318 -69 -675 -67 -998 5 -237 53 -520 167 -720 288 l-38 24 143 6 c869
39 1602 489 1962 1202 180 357 251 682 225 1030 -49 651 -474 1257 -1146 1635
l-82 46 97 17 c144 24 262 38 392 47 177 11 214 11 386 -1z"/>
</g>
</svg>
